# xmcd
#
# Track frame offsets: 
#        150
#        10456
#        21588
#        38024
#        53638
#        70060
#        84304
#        98261
#        112072
#        127547
#        140934
#        157624
#        173383
#        187215
#        201513
#        215166
#        237113
#        251029
#        268320
#        285312
#
# Disc length: 4061 seconds
#
# Revision: 0
# Processed by: cddbd v1.5.2PL0 Copyright (c) Steve Scherf et al.
# Submitted via: ExactAudioCopy v1.1
#
DISCID=180fdb14
DTITLE=Various Artist - Onthou Jy Nog? Disc 2
DYEAR=2009
DGENRE=Country
TTITLE0=Arina De Witt - Wals Van Die Somer
TTITLE1=Manuel Escorcio - Tafelbaai
TTITLE2=Fanie De Jager - Op Vleuels Van Verlange
TTITLE3=Cora Marie - Liefde In Die Reen
TTITLE4=Kupido - Was Ek Maar n Digter
TTITLE5=Ge Korsten - Ek Kyk Graag So Diep In Jou Oe
TTITLE6=Sonja Herholdt - Vanaand Verlang Ek Huistoe
TTITLE7=Rina Hugo - Troepie Doepie
TTITLE8=Anneli Van Rooyen - Soos Ou Vriende
TTITLE9=Carike Keuzenkamp - Tap Saam Met My
TTITLE10=Johan Stemmet - n Dans Met Pa
TTITLE11=Sias Reinecke - Riemrympiesd
TTITLE12=Ruben Lennox - n Duisend Liggies
TTITLE13=Gene Rockwell - Ciao
TTITLE14=Min Shaw - Ek Is Baie Lief Vir Jou
TTITLE15=Lucas Maree - Heel Van Vooraf
TTITLE16=Janita Claassen - Meisiekind
TTITLE17=Bles Bridges - Net Vir Jou
TTITLE18=Jurie Els - Hoe Se Mens Dankie
TTITLE19=Randall En Kobsa - Graaf-Reinet
EXTD=
EXTT0=
EXTT1=
EXTT2=
EXTT3=
EXTT4=
EXTT5=
EXTT6=
EXTT7=
EXTT8=
EXTT9=
EXTT10=
EXTT11=
EXTT12=
EXTT13=
EXTT14=
EXTT15=
EXTT16=
EXTT17=
EXTT18=
EXTT19=
PLAYORDER=
